# xmcd
#
# Track frame offsets:
#	150
#	23962
#	37170
#	54145
#	76815
#	100632
#	120510
#	140357
#	158712
#	174057
#	195770
#	218310
#	236947
#	253032
#	273210
#	300400
#	316580
#
# Disc length: 4433 seconds
#
# Revision: 2
# Processed by: cddbd v1.5.1PL0 Copyright (c) Steve Scherf et al.
# Submitted via: audiograbber 1.82.02
#
DISCID=c2114f11
DTITLE=Various Artist - Blue Highway
DYEAR=2000
DGENRE=Blues
TTITLE0=James Harman - Night Ridin' Daddy
TTITLE1=Johnny Dyer and Rick Holmstrom - Hands Off
TTITLE2=Earl King - Medieval Days
TTITLE3=Solomon Burke - Letter From My Darling
TTITLE4=Carol Fran and Clarence Hollimon - Are You Serious
TTITLE5=Guitar Shorty - I Just Can't Run Away from the Blues
TTITLE6=Mike Morgan and the Crawl - Just a Lil Bit of Your Love
TTITLE7=Terrance Simien - Come Back Home
TTITLE8=Lynn August - Love at First Sight
TTITLE9=Robert Ward - Some Things
TTITLE10=Maria Muldaur - Cajun Moon
TTITLE11=Big Joe and the Dynaflows - Big Legs
TTITLE12=Lee Rocker's Big Blue - Shame, Shame, Shame
TTITLE13=Hollywood Fats - Red Headed Woman
TTITLE14=Bobby ParkerI - I've Got a Way with Women
TTITLE15=W.C. Clark - You've Got to Love Me
TTITLE16=Johnny Dyer and Rick Holmstrom - Guitar Boogie Shuffle Twist
EXTD=
EXTT0=James Harman\n
EXTT1=
EXTT2=
EXTT3=
EXTT4=
EXTT5=
EXTT6=
EXTT7=
EXTT8=
EXTT9=
EXTT10=
EXTT11=
EXTT12=
EXTT13=
EXTT14=
EXTT15=
EXTT16=
PLAYORDER=
